<?xml version="1.0" standalone="no"?>
<!DOCTYPE svg PUBLIC "-//W3C//DTD SVG 1.1//EN"
"http://www.w3.org/Graphics/SVG/1.1/DTD/svg11.dtd">

<svg width="645" height="439" view_box="0 0 645 439"
xmlns="http://www.w3.org/2000/svg"
xmlns:link="http://www.w3.org/1999/xlink">\n\n<desc>Généré par Mocodo 2.3.7 le Wed, 18 Nov 2020 18:13:41</desc>

<rect id="frame" x="0" y="0" width="645" height="439" fill="#f7f7f7" stroke="none" stroke-width="0"/>

<!-- Association BELONGS_ -->
<line x1="588" y1="245" x2="588" y2="371" stroke="#d6604d" stroke-width="2"/>
<text x="593.0" y="321" fill="#2166ac" font-family="Verdana" font-size="12">1,1</text>
<line x1="437" y1="371" x2="588" y2="371" stroke="#d6604d" stroke-width="2"/>
<text x="520" y="388.0" fill="#2166ac" font-family="Verdana" font-size="12">1,N</text>
<g id="association-BELONGS_">
	<path d="M 615 346 a 14 14 90 0 1 14 14 V 371 h -82 V 360 a 14 14 90 0 1 14 -14" fill="#f4a582" stroke="#f4a582" stroke-width="0"/>
	<path d="M 629 371.0 v 11 a 14 14 90 0 1 -14 14 H 561 a 14 14 90 0 1 -14 -14 V 371.0 H 82" fill="#fddbc7" stroke="#fddbc7" stroke-width="0"/>
	<rect x="547" y="346" width="82" height="50" fill="none" rx="14" stroke="#d6604d" stroke-width="2"/>
	<line x1="547" y1="371" x2="629" y2="371" stroke="#d6604d" stroke-width="1"/>
	<text x="554" y="363.7" fill="#000000" font-family="Verdana" font-size="12">BELONGS_</text>
</g>

<!-- Association BELONGS -->
<line x1="437" y1="102" x2="437" y2="245" stroke="#d6604d" stroke-width="2"/>
<text x="442.0" y="212" fill="#2166ac" font-family="Verdana" font-size="12">0,N</text>
<line x1="437" y1="371" x2="437" y2="245" stroke="#d6604d" stroke-width="2"/>
<text x="442.0" y="321" fill="#2166ac" font-family="Verdana" font-size="12">1,1</text>
<g id="association-BELONGS">
	<path d="M 460 220 a 14 14 90 0 1 14 14 V 245 h -74 V 234 a 14 14 90 0 1 14 -14" fill="#f4a582" stroke="#f4a582" stroke-width="0"/>
	<path d="M 474 245.0 v 11 a 14 14 90 0 1 -14 14 H 414 a 14 14 90 0 1 -14 -14 V 245.0 H 74" fill="#fddbc7" stroke="#fddbc7" stroke-width="0"/>
	<rect x="400" y="220" width="74" height="50" fill="none" rx="14" stroke="#d6604d" stroke-width="2"/>
	<line x1="400" y1="245" x2="474" y2="245" stroke="#d6604d" stroke-width="1"/>
	<text x="407" y="237.7" fill="#000000" font-family="Verdana" font-size="12">BELONGS</text>
</g>

<!-- Association HAS_TICKETS -->
<line x1="259" y1="245" x2="259" y2="102" stroke="#d6604d" stroke-width="2"/>
<text x="264.0" y="203" fill="#2166ac" font-family="Verdana" font-size="12">1,1</text>
<line x1="437" y1="102" x2="259" y2="102" stroke="#d6604d" stroke-width="2"/>
<text x="351" y="119.0" fill="#2166ac" font-family="Verdana" font-size="12">0,N</text>
<g id="association-HAS_TICKETS">
	<path d="M 295 77 a 14 14 90 0 1 14 14 V 102 h -100 V 91 a 14 14 90 0 1 14 -14" fill="#f4a582" stroke="#f4a582" stroke-width="0"/>
	<path d="M 309 102.0 v 11 a 14 14 90 0 1 -14 14 H 223 a 14 14 90 0 1 -14 -14 V 102.0 H 100" fill="#fddbc7" stroke="#fddbc7" stroke-width="0"/>
	<rect x="209" y="77" width="100" height="50" fill="none" rx="14" stroke="#d6604d" stroke-width="2"/>
	<line x1="209" y1="102" x2="309" y2="102" stroke="#d6604d" stroke-width="1"/>
	<text x="216" y="94.7" fill="#000000" font-family="Verdana" font-size="12">HAS_TICKETS</text>
</g>

<!-- Association ALERTED_CONTACT -->
<line x1="437" y1="371" x2="259" y2="371" stroke="#d6604d" stroke-width="2"/>
<text x="332" y="388.0" fill="#2166ac" font-family="Verdana" font-size="12">0,N</text>
<line x1="84" y1="371" x2="259" y2="371" stroke="#d6604d" stroke-width="2"/>
<text x="164" y="388.0" fill="#2166ac" font-family="Verdana" font-size="12">1,1</text>
<g id="association-ALERTED_CONTACT">
	<path d="M 313 346 a 14 14 90 0 1 14 14 V 371 h -136 V 360 a 14 14 90 0 1 14 -14" fill="#f4a582" stroke="#f4a582" stroke-width="0"/>
	<path d="M 327 371.0 v 11 a 14 14 90 0 1 -14 14 H 205 a 14 14 90 0 1 -14 -14 V 371.0 H 136" fill="#fddbc7" stroke="#fddbc7" stroke-width="0"/>
	<rect x="191" y="346" width="136" height="50" fill="none" rx="14" stroke="#d6604d" stroke-width="2"/>
	<line x1="191" y1="371" x2="327" y2="371" stroke="#d6604d" stroke-width="1"/>
	<text x="198" y="363.7" fill="#000000" font-family="Verdana" font-size="12">ALERTED_CONTACT</text>
</g>

<!-- Association HAS_MESSAGE -->
<line x1="84" y1="102" x2="84" y2="245" stroke="#d6604d" stroke-width="2"/>
<text x="89.0" y="178" fill="#2166ac" font-family="Verdana" font-size="12">1,1</text>
<line x1="259" y1="245" x2="84" y2="245" stroke="#d6604d" stroke-width="2"/>
<text x="177" y="262.0" fill="#2166ac" font-family="Verdana" font-size="12">0,N</text>
<g id="association-HAS_MESSAGE">
	<path d="M 124 220 a 14 14 90 0 1 14 14 V 245 h -108 V 234 a 14 14 90 0 1 14 -14" fill="#f4a582" stroke="#f4a582" stroke-width="0"/>
	<path d="M 138 245.0 v 11 a 14 14 90 0 1 -14 14 H 44 a 14 14 90 0 1 -14 -14 V 245.0 H 108" fill="#fddbc7" stroke="#fddbc7" stroke-width="0"/>
	<rect x="30" y="220" width="108" height="50" fill="none" rx="14" stroke="#d6604d" stroke-width="2"/>
	<line x1="30" y1="245" x2="138" y2="245" stroke="#d6604d" stroke-width="1"/>
	<text x="37" y="237.7" fill="#000000" font-family="Verdana" font-size="12">HAS_MESSAGE</text>
</g>

<!-- Entity LOG -->
<g id="entity-LOG">
	<g id="frame-LOG">
		<rect x="540" y="186" width="96" height="25" fill="#92c5de" stroke="#92c5de" stroke-width="0"/>
		<rect x="540" y="211.0" width="96" height="93" fill="#d1e5f0" stroke="#d1e5f0" stroke-width="0"/>
		<rect x="540" y="186" width="96" height="118" fill="none" stroke="#4393c3" stroke-width="2"/>
		<line x1="540" y1="211" x2="636" y2="211" stroke="#4393c3" stroke-width="1"/>
	</g>
	<text x="574" y="203.7" fill="#000000" font-family="Verdana" font-size="12">LOG</text>
	<text x="545" y="228.7" fill="#000000" font-family="Verdana" font-size="12">id_log</text>
	<line x1="545" y1="231" x2="582" y2="231" stroke="#000000" stroke-width="1"/>
	<text x="545" y="245.8" fill="#000000" font-family="Verdana" font-size="12">content_log</text>
	<text x="545" y="262.8" fill="#000000" font-family="Verdana" font-size="12">type_log</text>
	<text x="545" y="279.8" fill="#000000" font-family="Verdana" font-size="12">datetime_log</text>
	<text x="545" y="296.8" fill="#000000" font-family="Verdana" font-size="12">exception_log</text>
</g>

<!-- Entity CONTACT -->
<g id="entity-CONTACT">
	<g id="frame-CONTACT">
		<rect x="9" y="312" width="150" height="25" fill="#92c5de" stroke="#92c5de" stroke-width="0"/>
		<rect x="9" y="337.0" width="150" height="93" fill="#d1e5f0" stroke="#d1e5f0" stroke-width="0"/>
		<rect x="9" y="312" width="150" height="118" fill="none" stroke="#4393c3" stroke-width="2"/>
		<line x1="9" y1="337" x2="159" y2="337" stroke="#4393c3" stroke-width="1"/>
	</g>
	<text x="54" y="329.7" fill="#000000" font-family="Verdana" font-size="12">CONTACT</text>
	<text x="14" y="354.7" fill="#000000" font-family="Verdana" font-size="12">id_contact</text>
	<line x1="14" y1="357" x2="77" y2="357" stroke="#000000" stroke-width="1"/>
	<text x="14" y="371.8" fill="#000000" font-family="Verdana" font-size="12">num_contact</text>
	<text x="14" y="388.8" fill="#000000" font-family="Verdana" font-size="12">firstname_contact</text>
	<text x="14" y="405.8" fill="#000000" font-family="Verdana" font-size="12">lastname_contact</text>
	<text x="14" y="422.8" fill="#000000" font-family="Verdana" font-size="12">profile_picture_contact</text>
</g>

<!-- Entity USER -->
<g id="entity-USER">
	<g id="frame-USER">
		<rect x="378" y="9" width="118" height="25" fill="#92c5de" stroke="#92c5de" stroke-width="0"/>
		<rect x="378" y="34.0" width="118" height="161" fill="#d1e5f0" stroke="#d1e5f0" stroke-width="0"/>
		<rect x="378" y="9" width="118" height="186" fill="none" stroke="#4393c3" stroke-width="2"/>
		<line x1="378" y1="34" x2="496" y2="34" stroke="#4393c3" stroke-width="1"/>
	</g>
	<text x="420" y="26.7" fill="#000000" font-family="Verdana" font-size="12">USER</text>
	<text x="383" y="51.7" fill="#000000" font-family="Verdana" font-size="12">username_user</text>
	<line x1="383" y1="54" x2="478" y2="54" stroke="#000000" stroke-width="1"/>
	<text x="383" y="68.7" fill="#000000" font-family="Verdana" font-size="12">num_user</text>
	<text x="383" y="85.7" fill="#000000" font-family="Verdana" font-size="12">firstname_user</text>
	<text x="383" y="102.8" fill="#000000" font-family="Verdana" font-size="12">lastname_user</text>
	<text x="383" y="119.8" fill="#000000" font-family="Verdana" font-size="12">email_user</text>
	<text x="383" y="136.8" fill="#000000" font-family="Verdana" font-size="12">town_user</text>
	<text x="383" y="153.8" fill="#000000" font-family="Verdana" font-size="12">postal_code_user</text>
	<text x="383" y="170.8" fill="#000000" font-family="Verdana" font-size="12">street_user</text>
	<text x="383" y="187.8" fill="#000000" font-family="Verdana" font-size="12">is_admin_user</text>
</g>

<!-- Entity DEVICE -->
<g id="entity-DEVICE">
	<g id="frame-DEVICE">
		<rect x="359" y="329" width="156" height="25" fill="#92c5de" stroke="#92c5de" stroke-width="0"/>
		<rect x="359" y="354.0" width="156" height="59" fill="#d1e5f0" stroke="#d1e5f0" stroke-width="0"/>
		<rect x="359" y="329" width="156" height="84" fill="none" stroke="#4393c3" stroke-width="2"/>
		<line x1="359" y1="354" x2="515" y2="354" stroke="#4393c3" stroke-width="1"/>
	</g>
	<text x="413" y="346.7" fill="#000000" font-family="Verdana" font-size="12">DEVICE</text>
	<text x="364" y="371.8" fill="#000000" font-family="Verdana" font-size="12">num_device</text>
	<line x1="364" y1="374" x2="438" y2="374" stroke="#000000" stroke-width="1"/>
	<text x="364" y="388.8" fill="#000000" font-family="Verdana" font-size="12">name_device</text>
	<text x="364" y="405.8" fill="#000000" font-family="Verdana" font-size="12">row_parameters_device</text>
</g>

<!-- Entity MESSAGE -->
<g id="entity-MESSAGE">
	<g id="frame-MESSAGE">
		<rect x="21" y="43" width="126" height="25" fill="#92c5de" stroke="#92c5de" stroke-width="0"/>
		<rect x="21" y="68.0" width="126" height="93" fill="#d1e5f0" stroke="#d1e5f0" stroke-width="0"/>
		<rect x="21" y="43" width="126" height="118" fill="none" stroke="#4393c3" stroke-width="2"/>
		<line x1="21" y1="68" x2="147" y2="68" stroke="#4393c3" stroke-width="1"/>
	</g>
	<text x="54" y="60.7" fill="#000000" font-family="Verdana" font-size="12">MESSAGE</text>
	<text x="26" y="85.7" fill="#000000" font-family="Verdana" font-size="12">id_message</text>
	<line x1="26" y1="88" x2="99" y2="88" stroke="#000000" stroke-width="1"/>
	<text x="26" y="102.8" fill="#000000" font-family="Verdana" font-size="12">is_admin_message</text>
	<text x="26" y="119.8" fill="#000000" font-family="Verdana" font-size="12">datetime_message</text>
	<text x="26" y="136.8" fill="#000000" font-family="Verdana" font-size="12">title_message</text>
	<text x="26" y="153.8" fill="#000000" font-family="Verdana" font-size="12">content_message</text>
</g>

<!-- Entity TICKET -->
<g id="entity-TICKET">
	<g id="frame-TICKET">
		<rect x="204" y="211" width="110" height="25" fill="#92c5de" stroke="#92c5de" stroke-width="0"/>
		<rect x="204" y="236.0" width="110" height="43" fill="#d1e5f0" stroke="#d1e5f0" stroke-width="0"/>
		<rect x="204" y="211" width="110" height="68" fill="none" stroke="#4393c3" stroke-width="2"/>
		<line x1="204" y1="236" x2="314" y2="236" stroke="#4393c3" stroke-width="1"/>
	</g>
	<text x="236" y="228.7" fill="#000000" font-family="Verdana" font-size="12">TICKET</text>
	<text x="209" y="253.8" fill="#000000" font-family="Verdana" font-size="12">id_ticket</text>
	<line x1="209" y1="256" x2="262" y2="256" stroke="#000000" stroke-width="1"/>
	<text x="209" y="270.8" fill="#000000" font-family="Verdana" font-size="12">is_closed_ticked</text>
</g>
</svg>