<?xml version="1.0" standalone="no"?>
<!DOCTYPE svg PUBLIC "-//W3C//DTD SVG 1.1//EN"
"http://www.w3.org/Graphics/SVG/1.1/DTD/svg11.dtd">

<svg width="801" height="559" view_box="0 0 801 559"
xmlns="http://www.w3.org/2000/svg"
xmlns:link="http://www.w3.org/1999/xlink">\n\n<desc>Généré par Mocodo 2.3.7 le Sat, 13 Mar 2021 04:48:44</desc>

<rect id="frame" x="0" y="0" width="801" height="559" fill="#f7f7f7" stroke="none" stroke-width="0"/>

<!-- Association SUBSCRIPTED -->
<line x1="262" y1="482" x2="424" y2="482" stroke="#de77ae" stroke-width="2"/>
<text x="346" y="499.0" fill="#4d9221" font-family="Verdana" font-size="12">0,N</text>
<line x1="424" y1="271" x2="424" y2="482" stroke="#de77ae" stroke-width="2"/>
<text x="429.0" y="415" fill="#4d9221" font-family="Verdana" font-size="12">1,1</text>
<g id="association-SUBSCRIPTED">
	<path d="M 461 457 a 14 14 90 0 1 14 14 V 482 h -102 V 471 a 14 14 90 0 1 14 -14" fill="#f1b6da" stroke="#f1b6da" stroke-width="0"/>
	<path d="M 475 482.0 v 11 a 14 14 90 0 1 -14 14 H 387 a 14 14 90 0 1 -14 -14 V 482.0 H 102" fill="#fde0ef" stroke="#fde0ef" stroke-width="0"/>
	<rect x="373" y="457" width="102" height="50" fill="none" rx="14" stroke="#de77ae" stroke-width="2"/>
	<line x1="373" y1="482" x2="475" y2="482" stroke="#de77ae" stroke-width="1"/>
	<text x="380" y="474.7" fill="#000000" font-family="Verdana" font-size="12">SUBSCRIPTED</text>
</g>

<!-- Association BELONGS_ -->
<line x1="588" y1="68" x2="424" y2="68" stroke="#de77ae" stroke-width="2"/>
<text x="514" y="85.0" fill="#4d9221" font-family="Verdana" font-size="12">1,1</text>
<line x1="262" y1="68" x2="424" y2="68" stroke="#de77ae" stroke-width="2"/>
<text x="345" y="85.0" fill="#4d9221" font-family="Verdana" font-size="12">1,N</text>
<g id="association-BELONGS_">
	<path d="M 451 43 a 14 14 90 0 1 14 14 V 68 h -82 V 57 a 14 14 90 0 1 14 -14" fill="#f1b6da" stroke="#f1b6da" stroke-width="0"/>
	<path d="M 465 68.0 v 11 a 14 14 90 0 1 -14 14 H 397 a 14 14 90 0 1 -14 -14 V 68.0 H 82" fill="#fde0ef" stroke="#fde0ef" stroke-width="0"/>
	<rect x="383" y="43" width="82" height="50" fill="none" rx="14" stroke="#de77ae" stroke-width="2"/>
	<line x1="383" y1="68" x2="465" y2="68" stroke="#de77ae" stroke-width="1"/>
	<text x="390" y="60.7" fill="#000000" font-family="Verdana" font-size="12">BELONGS_</text>
</g>

<!-- Association BELONGS -->
<line x1="424" y1="271" x2="262" y2="271" stroke="#de77ae" stroke-width="2"/>
<text x="315" y="288.0" fill="#4d9221" font-family="Verdana" font-size="12">0,N</text>
<line x1="262" y1="68" x2="262" y2="271" stroke="#de77ae" stroke-width="2"/>
<text x="267.0" y="136" fill="#4d9221" font-family="Verdana" font-size="12">1,1</text>
<g id="association-BELONGS">
	<path d="M 285 246 a 14 14 90 0 1 14 14 V 271 h -74 V 260 a 14 14 90 0 1 14 -14" fill="#f1b6da" stroke="#f1b6da" stroke-width="0"/>
	<path d="M 299 271.0 v 11 a 14 14 90 0 1 -14 14 H 239 a 14 14 90 0 1 -14 -14 V 271.0 H 74" fill="#fde0ef" stroke="#fde0ef" stroke-width="0"/>
	<rect x="225" y="246" width="74" height="50" fill="none" rx="14" stroke="#de77ae" stroke-width="2"/>
	<line x1="225" y1="271" x2="299" y2="271" stroke="#de77ae" stroke-width="1"/>
	<text x="232" y="263.7" fill="#000000" font-family="Verdana" font-size="12">BELONGS</text>
</g>

<!-- Association HAS_MESSAGE -->
<line x1="588" y1="482" x2="737" y2="482" stroke="#de77ae" stroke-width="2"/>
<text x="656" y="499.0" fill="#4d9221" font-family="Verdana" font-size="12">1,1</text>
<line x1="737" y1="271" x2="737" y2="482" stroke="#de77ae" stroke-width="2"/>
<text x="742.0" y="330" fill="#4d9221" font-family="Verdana" font-size="12">0,N</text>
<g id="association-HAS_MESSAGE">
	<path d="M 777 457 a 14 14 90 0 1 14 14 V 482 h -108 V 471 a 14 14 90 0 1 14 -14" fill="#f1b6da" stroke="#f1b6da" stroke-width="0"/>
	<path d="M 791 482.0 v 11 a 14 14 90 0 1 -14 14 H 697 a 14 14 90 0 1 -14 -14 V 482.0 H 108" fill="#fde0ef" stroke="#fde0ef" stroke-width="0"/>
	<rect x="683" y="457" width="108" height="50" fill="none" rx="14" stroke="#de77ae" stroke-width="2"/>
	<line x1="683" y1="482" x2="791" y2="482" stroke="#de77ae" stroke-width="1"/>
	<text x="690" y="474.7" fill="#000000" font-family="Verdana" font-size="12">HAS_MESSAGE</text>
</g>

<!-- Association ALERTED_CONTACT -->
<line x1="262" y1="68" x2="84" y2="68" stroke="#de77ae" stroke-width="2"/>
<text x="157" y="85.0" fill="#4d9221" font-family="Verdana" font-size="12">0,N</text>
<line x1="84" y1="271" x2="84" y2="68" stroke="#de77ae" stroke-width="2"/>
<text x="89.0" y="204" fill="#4d9221" font-family="Verdana" font-size="12">1,1</text>
<g id="association-ALERTED_CONTACT">
	<path d="M 138 43 a 14 14 90 0 1 14 14 V 68 h -136 V 57 a 14 14 90 0 1 14 -14" fill="#f1b6da" stroke="#f1b6da" stroke-width="0"/>
	<path d="M 152 68.0 v 11 a 14 14 90 0 1 -14 14 H 30 a 14 14 90 0 1 -14 -14 V 68.0 H 136" fill="#fde0ef" stroke="#fde0ef" stroke-width="0"/>
	<rect x="16" y="43" width="136" height="50" fill="none" rx="14" stroke="#de77ae" stroke-width="2"/>
	<line x1="16" y1="68" x2="152" y2="68" stroke="#de77ae" stroke-width="1"/>
	<text x="23" y="60.7" fill="#000000" font-family="Verdana" font-size="12">ALERTED_CONTACT</text>
</g>

<!-- Association HAS_TICKETS -->
<line x1="737" y1="271" x2="588" y2="271" stroke="#de77ae" stroke-width="2"/>
<text x="656" y="288.0" fill="#4d9221" font-family="Verdana" font-size="12">1,1</text>
<line x1="424" y1="271" x2="588" y2="271" stroke="#de77ae" stroke-width="2"/>
<text x="511" y="288.0" fill="#4d9221" font-family="Verdana" font-size="12">0,N</text>
<g id="association-HAS_TICKETS">
	<path d="M 624 246 a 14 14 90 0 1 14 14 V 271 h -100 V 260 a 14 14 90 0 1 14 -14" fill="#f1b6da" stroke="#f1b6da" stroke-width="0"/>
	<path d="M 638 271.0 v 11 a 14 14 90 0 1 -14 14 H 552 a 14 14 90 0 1 -14 -14 V 271.0 H 100" fill="#fde0ef" stroke="#fde0ef" stroke-width="0"/>
	<rect x="538" y="246" width="100" height="50" fill="none" rx="14" stroke="#de77ae" stroke-width="2"/>
	<line x1="538" y1="271" x2="638" y2="271" stroke="#de77ae" stroke-width="1"/>
	<text x="545" y="263.7" fill="#000000" font-family="Verdana" font-size="12">HAS_TICKETS</text>
</g>

<!-- Entity LOG -->
<g id="entity-LOG">
	<g id="frame-LOG">
		<rect x="540" y="9" width="96" height="25" fill="#b8e186" stroke="#b8e186" stroke-width="0"/>
		<rect x="540" y="34.0" width="96" height="93" fill="#e6f5d0" stroke="#e6f5d0" stroke-width="0"/>
		<rect x="540" y="9" width="96" height="118" fill="none" stroke="#7fbc41" stroke-width="2"/>
		<line x1="540" y1="34" x2="636" y2="34" stroke="#7fbc41" stroke-width="1"/>
	</g>
	<text x="574" y="26.7" fill="#000000" font-family="Verdana" font-size="12">LOG</text>
	<text x="545" y="51.7" fill="#000000" font-family="Verdana" font-size="12">id_log</text>
	<line x1="545" y1="54" x2="582" y2="54" stroke="#000000" stroke-width="1"/>
	<text x="545" y="68.8" fill="#000000" font-family="Verdana" font-size="12">content_log</text>
	<text x="545" y="85.8" fill="#000000" font-family="Verdana" font-size="12">type_log</text>
	<text x="545" y="102.8" fill="#000000" font-family="Verdana" font-size="12">datetime_log</text>
	<text x="545" y="119.8" fill="#000000" font-family="Verdana" font-size="12">exception_log</text>
</g>

<!-- Entity CONTACT -->
<g id="entity-CONTACT">
	<g id="frame-CONTACT">
		<rect x="9" y="212" width="150" height="25" fill="#b8e186" stroke="#b8e186" stroke-width="0"/>
		<rect x="9" y="237.0" width="150" height="93" fill="#e6f5d0" stroke="#e6f5d0" stroke-width="0"/>
		<rect x="9" y="212" width="150" height="118" fill="none" stroke="#7fbc41" stroke-width="2"/>
		<line x1="9" y1="237" x2="159" y2="237" stroke="#7fbc41" stroke-width="1"/>
	</g>
	<text x="54" y="229.7" fill="#000000" font-family="Verdana" font-size="12">CONTACT</text>
	<text x="14" y="254.7" fill="#000000" font-family="Verdana" font-size="12">id_contact</text>
	<line x1="14" y1="257" x2="77" y2="257" stroke="#000000" stroke-width="1"/>
	<text x="14" y="271.8" fill="#000000" font-family="Verdana" font-size="12">num_contact</text>
	<text x="14" y="288.8" fill="#000000" font-family="Verdana" font-size="12">firstname_contact</text>
	<text x="14" y="305.8" fill="#000000" font-family="Verdana" font-size="12">lastname_contact</text>
	<text x="14" y="322.8" fill="#000000" font-family="Verdana" font-size="12">profile_picture_contact</text>
</g>

<!-- Entity USER -->
<g id="entity-USER">
	<g id="frame-USER">
		<rect x="342" y="144" width="164" height="25" fill="#b8e186" stroke="#b8e186" stroke-width="0"/>
		<rect x="342" y="169.0" width="164" height="229" fill="#e6f5d0" stroke="#e6f5d0" stroke-width="0"/>
		<rect x="342" y="144" width="164" height="254" fill="none" stroke="#7fbc41" stroke-width="2"/>
		<line x1="342" y1="169" x2="506" y2="169" stroke="#7fbc41" stroke-width="1"/>
	</g>
	<text x="407" y="161.7" fill="#000000" font-family="Verdana" font-size="12">USER</text>
	<text x="347" y="186.7" fill="#000000" font-family="Verdana" font-size="12">username_user</text>
	<line x1="347" y1="189" x2="442" y2="189" stroke="#000000" stroke-width="1"/>
	<text x="347" y="203.7" fill="#000000" font-family="Verdana" font-size="12">num_user</text>
	<text x="347" y="220.7" fill="#000000" font-family="Verdana" font-size="12">firstname_user</text>
	<text x="347" y="237.7" fill="#000000" font-family="Verdana" font-size="12">lastname_user</text>
	<text x="347" y="254.7" fill="#000000" font-family="Verdana" font-size="12">email_user</text>
	<text x="347" y="271.8" fill="#000000" font-family="Verdana" font-size="12">town_user</text>
	<text x="347" y="288.8" fill="#000000" font-family="Verdana" font-size="12">postal_code_user</text>
	<text x="347" y="305.8" fill="#000000" font-family="Verdana" font-size="12">street_user</text>
	<text x="347" y="322.8" fill="#000000" font-family="Verdana" font-size="12">profile_picture_user</text>
	<text x="347" y="339.8" fill="#000000" font-family="Verdana" font-size="12">is_admin_user</text>
	<text x="347" y="356.8" fill="#000000" font-family="Verdana" font-size="12">selected_device_user</text>
	<text x="347" y="373.8" fill="#000000" font-family="Verdana" font-size="12">is_account_blocked_user</text>
	<text x="347" y="390.8" fill="#000000" font-family="Verdana" font-size="12">date_creation_user</text>
</g>

<!-- Entity DEVICE -->
<g id="entity-DEVICE">
	<g id="frame-DEVICE">
		<rect x="184" y="17" width="156" height="25" fill="#b8e186" stroke="#b8e186" stroke-width="0"/>
		<rect x="184" y="42.0" width="156" height="77" fill="#e6f5d0" stroke="#e6f5d0" stroke-width="0"/>
		<rect x="184" y="17" width="156" height="102" fill="none" stroke="#7fbc41" stroke-width="2"/>
		<line x1="184" y1="42" x2="340" y2="42" stroke="#7fbc41" stroke-width="1"/>
	</g>
	<text x="238" y="34.7" fill="#000000" font-family="Verdana" font-size="12">DEVICE</text>
	<text x="189" y="59.7" fill="#000000" font-family="Verdana" font-size="12">num_device</text>
	<line x1="189" y1="62" x2="263" y2="62" stroke="#000000" stroke-width="1"/>
	<text x="189" y="76.8" fill="#000000" font-family="Verdana" font-size="12">name_device</text>
	<text x="189" y="93.8" fill="#000000" font-family="Verdana" font-size="12">row_parameters_device</text>
	<text x="189" y="110.8" fill="#000000" font-family="Verdana" font-size="12">username_user</text>
</g>

<!-- Entity TICKET -->
<g id="entity-TICKET">
	<g id="frame-TICKET">
		<rect x="682" y="229" width="110" height="25" fill="#b8e186" stroke="#b8e186" stroke-width="0"/>
		<rect x="682" y="254.0" width="110" height="59" fill="#e6f5d0" stroke="#e6f5d0" stroke-width="0"/>
		<rect x="682" y="229" width="110" height="84" fill="none" stroke="#7fbc41" stroke-width="2"/>
		<line x1="682" y1="254" x2="792" y2="254" stroke="#7fbc41" stroke-width="1"/>
	</g>
	<text x="714" y="246.7" fill="#000000" font-family="Verdana" font-size="12">TICKET</text>
	<text x="687" y="271.8" fill="#000000" font-family="Verdana" font-size="12">id_ticket</text>
	<line x1="687" y1="274" x2="740" y2="274" stroke="#000000" stroke-width="1"/>
	<text x="687" y="288.8" fill="#000000" font-family="Verdana" font-size="12">title_ticket</text>
	<text x="687" y="305.8" fill="#000000" font-family="Verdana" font-size="12">is_closed_ticked</text>
</g>

<!-- Entity IPLOGGER -->
<g id="entity-IPLOGGER">
	<g id="frame-IPLOGGER">
		<rect x="46" y="414" width="76" height="25" fill="#b8e186" stroke="#b8e186" stroke-width="0"/>
		<rect x="46" y="439.0" width="76" height="111" fill="#e6f5d0" stroke="#e6f5d0" stroke-width="0"/>
		<rect x="46" y="414" width="76" height="136" fill="none" stroke="#7fbc41" stroke-width="2"/>
		<line x1="46" y1="439" x2="122" y2="439" stroke="#7fbc41" stroke-width="1"/>
	</g>
	<text x="52" y="431.7" fill="#000000" font-family="Verdana" font-size="12">IPLOGGER</text>
	<text x="51" y="456.7" fill="#000000" font-family="Verdana" font-size="12">ip_log</text>
	<line x1="51" y1="459" x2="88" y2="459" stroke="#000000" stroke-width="1"/>
	<text x="51" y="473.7" fill="#000000" font-family="Verdana" font-size="12">ip_address</text>
	<text x="51" y="490.8" fill="#000000" font-family="Verdana" font-size="12">time_info</text>
	<text x="51" y="507.8" fill="#000000" font-family="Verdana" font-size="12">latitude</text>
	<text x="51" y="524.8" fill="#000000" font-family="Verdana" font-size="12">longitude</text>
	<text x="51" y="541.8" fill="#000000" font-family="Verdana" font-size="12">timestamp</text>
</g>

<!-- Entity MESSAGE -->
<g id="entity-MESSAGE">
	<g id="frame-MESSAGE">
		<rect x="525" y="423" width="126" height="25" fill="#b8e186" stroke="#b8e186" stroke-width="0"/>
		<rect x="525" y="448.0" width="126" height="93" fill="#e6f5d0" stroke="#e6f5d0" stroke-width="0"/>
		<rect x="525" y="423" width="126" height="118" fill="none" stroke="#7fbc41" stroke-width="2"/>
		<line x1="525" y1="448" x2="651" y2="448" stroke="#7fbc41" stroke-width="1"/>
	</g>
	<text x="558" y="440.7" fill="#000000" font-family="Verdana" font-size="12">MESSAGE</text>
	<text x="530" y="465.7" fill="#000000" font-family="Verdana" font-size="12">id_message</text>
	<line x1="530" y1="468" x2="603" y2="468" stroke="#000000" stroke-width="1"/>
	<text x="530" y="482.8" fill="#000000" font-family="Verdana" font-size="12">is_admin_message</text>
	<text x="530" y="499.8" fill="#000000" font-family="Verdana" font-size="12">datetime_message</text>
	<text x="530" y="516.8" fill="#000000" font-family="Verdana" font-size="12">content_message</text>
	<text x="530" y="533.8" fill="#000000" font-family="Verdana" font-size="12">username_user</text>
</g>

<!-- Entity SUBSCRIPTION -->
<g id="entity-SUBSCRIPTION">
	<g id="frame-SUBSCRIPTION">
		<rect x="183" y="431" width="158" height="25" fill="#b8e186" stroke="#b8e186" stroke-width="0"/>
		<rect x="183" y="456.0" width="158" height="77" fill="#e6f5d0" stroke="#e6f5d0" stroke-width="0"/>
		<rect x="183" y="431" width="158" height="102" fill="none" stroke="#7fbc41" stroke-width="2"/>
		<line x1="183" y1="456" x2="341" y2="456" stroke="#7fbc41" stroke-width="1"/>
	</g>
	<text x="215" y="448.7" fill="#000000" font-family="Verdana" font-size="12">SUBSCRIPTION</text>
	<text x="188" y="473.7" fill="#000000" font-family="Verdana" font-size="12">name_subscription</text>
	<line x1="188" y1="476" x2="303" y2="476" stroke="#000000" stroke-width="1"/>
	<text x="188" y="490.8" fill="#000000" font-family="Verdana" font-size="12">price_subscription</text>
	<text x="188" y="507.8" fill="#000000" font-family="Verdana" font-size="12">localisation_subscription</text>
	<text x="188" y="524.8" fill="#000000" font-family="Verdana" font-size="12">features_subscription</text>
</g>
</svg>