<svg width="30" height="25" viewBox="0 0 30 25" fill="none" xmlns="http://www.w3.org/2000/svg">
<path d="M27 25H3C1.34315 25 0 23.6009 0 21.875V3.125C0 1.39911 1.34315 0 3 0H27C28.6569 0 30 1.39911 30 3.125V21.875C30 23.6009 28.6569 25 27 25ZM3 3.125V21.875H27V3.125H3ZM20.25 18.75C18.1789 18.75 16.5 17.0011 16.5 14.8438C16.5 12.6864 18.1789 10.9375 20.25 10.9375C22.3211 10.9375 24 12.6864 24 14.8438C24 15.8798 23.6049 16.8733 22.9016 17.6059C22.1984 18.3384 21.2446 18.75 20.25 18.75ZM14.25 18.75C12.1789 18.75 10.5 17.0011 10.5 14.8438C10.5 12.6864 12.1789 10.9375 14.25 10.9375C15.0642 10.9382 15.8553 11.2195 16.5 11.7375C15.5569 12.4674 15.0009 13.6191 15.0009 14.843C15.0009 16.0668 15.5569 17.2185 16.5 17.9484C15.8555 18.467 15.0644 18.7489 14.25 18.75Z" fill="#DA1025"/>
</svg>
