<svg width="25" height="34" viewBox="0 0 25 34" fill="none" xmlns="http://www.w3.org/2000/svg">
<rect x="0.640856" y="5.42921" width="14" height="29" rx="4.5" transform="rotate(-20 0.640856 5.42921)" fill="white" stroke="#DC1D21"/>
<rect x="14.6169" y="13.8865" width="0.566455" height="5.14386" transform="rotate(-65 14.6169 13.8865)" fill="#DC1D21"/>
<rect x="14.6978" y="13.6211" width="0.566455" height="7.45728" transform="rotate(25 14.6978 13.6211)" fill="#DC1D21"/>
<rect x="4.34326" y="17.0635" width="0.566455" height="8.24282" transform="rotate(-65 4.34326 17.0635)" fill="#DC1D21"/>
<rect x="14.8223" y="13.354" width="0.566455" height="7.79142" transform="rotate(25 14.8223 13.354)" fill="#DC1D21"/>
<rect x="4.34326" y="17.0635" width="0.566455" height="8.28299" transform="rotate(-65 4.34326 17.0635)" fill="#DC1D21"/>
<rect x="14.1038" y="12.4768" width="0.566455" height="4.87595" transform="rotate(-65 14.1038 12.4768)" fill="#DC1D21"/>
<rect x="14.1848" y="12.2114" width="0.566455" height="7.45728" transform="rotate(25 14.1848 12.2114)" fill="#DC1D21"/>
<rect x="3.83032" y="15.6541" width="0.566455" height="8.24282" transform="rotate(-65 3.83032 15.6541)" fill="#DC1D21"/>
<rect x="14.2996" y="11.9651" width="0.566455" height="7.76858" transform="rotate(25 14.2996 11.9651)" fill="#DC1D21"/>
<rect x="3.83032" y="15.6541" width="0.566455" height="8.28299" transform="rotate(-65 3.83032 15.6541)" fill="#DC1D21"/>
<rect x="11.0425" y="4.14453" width="0.566455" height="5.16119" transform="rotate(-65 11.0425 4.14453)" fill="#DC1D21"/>
<rect x="11.158" y="3.89502" width="0.566455" height="7.45728" transform="rotate(25 11.158 3.89502)" fill="#DC1D21"/>
<rect x="1.77393" y="7.79028" width="0.566455" height="7.17193" transform="rotate(-65 1.77393 7.79028)" fill="#DC1D21"/>
<rect x="11.2827" y="3.62793" width="0.566455" height="7.79156" transform="rotate(25 11.2827 3.62793)" fill="#DC1D21"/>
<rect x="11.4961" y="5.40942" width="0.566455" height="5.09732" transform="rotate(-65 11.4961 5.40942)" fill="#DC1D21"/>
<rect x="11.7402" y="4.90527" width="0.566455" height="7.70195" transform="rotate(25 11.7402 4.90527)" fill="#DC1D21"/>
<rect x="1.60815" y="8.67139" width="0.566455" height="8.14987" transform="rotate(-65 1.60815 8.67139)" fill="#DC1D21"/>
<rect x="11.96" y="6.67896" width="0.566455" height="5.4414" transform="rotate(-65 11.96 6.67896)" fill="#DC1D21"/>
<rect x="12.0815" y="6.43237" width="0.566455" height="7.49612" transform="rotate(25 12.0815 6.43237)" fill="#DC1D21"/>
<rect x="1.82764" y="9.92212" width="0.566455" height="8.13159" transform="rotate(-65 1.82764 9.92212)" fill="#DC1D21"/>
<rect x="13.6011" y="11.1895" width="0.566455" height="5.19406" transform="rotate(-65 13.6011 11.1895)" fill="#DC1D21"/>
<rect x="13.8342" y="10.7051" width="0.566455" height="7.71975" transform="rotate(25 13.8342 10.7051)" fill="#DC1D21"/>
<rect x="3.36865" y="14.3853" width="0.566455" height="8.24282" transform="rotate(-65 3.36865 14.3853)" fill="#DC1D21"/>
<rect x="3.36865" y="14.3853" width="0.566455" height="8.28299" transform="rotate(-65 3.36865 14.3853)" fill="#DC1D21"/>
<rect x="12.1548" y="23.9058" width="5" height="5" rx="1.5" transform="rotate(-20 12.1548 23.9058)" fill="white" stroke="#DC1D21"/>
<path d="M14.9226 26.2131L14.1931 24.2089L14.88 23.9589C15.1067 23.8764 15.2957 23.8591 15.4472 23.9068C15.5986 23.9546 15.7071 24.0684 15.7725 24.2483C15.8059 24.34 15.8112 24.4316 15.7884 24.5231C15.7656 24.6145 15.7138 24.6978 15.633 24.7729C15.752 24.7629 15.8557 24.788 15.9442 24.8483C16.0332 24.9073 16.0984 24.9938 16.1399 25.1076C16.2083 25.2957 16.2004 25.4622 16.116 25.6073C16.0325 25.752 15.8783 25.8652 15.6535 25.9471L14.9226 26.2131ZM14.9417 25.182L15.1696 25.8083L15.5564 25.6675C15.6656 25.6278 15.7411 25.5696 15.7829 25.4931C15.8247 25.4166 15.828 25.3302 15.793 25.2338C15.7172 25.0255 15.572 24.9578 15.3574 25.0307L14.9417 25.182ZM14.8485 24.926L15.1899 24.8017C15.2982 24.7623 15.3737 24.7073 15.4166 24.6366C15.46 24.5646 15.4654 24.4837 15.4327 24.3938C15.3966 24.2947 15.3421 24.2334 15.2692 24.2101C15.1972 24.1864 15.1015 24.1963 14.9822 24.2397L14.6436 24.363L14.8485 24.926Z" fill="#DC1D21"/>
</svg>
