<svg width="26" height="26" viewBox="0 0 26 26" fill="none" xmlns="http://www.w3.org/2000/svg">
<path d="M13 26C5.8203 26 0 20.1797 0 13C0 5.8203 5.8203 0 13 0C20.1797 0 26 5.8203 26 13C25.9921 20.1764 20.1764 25.9921 13 26ZM13 2.6C7.25624 2.6 2.6 7.25624 2.6 13C2.6 18.7438 7.25624 23.4 13 23.4C18.7438 23.4 23.4 18.7438 23.4 13C23.3936 7.25891 18.7411 2.60645 13 2.6ZM13 20.8C10.946 20.8348 9.00458 19.864 7.8 18.2C7.2151 17.4178 6.77483 16.5373 6.5 15.6H19.5C19.5 15.6 19.5 15.6 19.5 15.6104C19.2209 16.5428 18.781 17.4192 18.2 18.2C16.9953 19.8639 15.0539 20.8345 13 20.8ZM8.45 13C7.37304 13 6.5 12.127 6.5 11.05C6.5 9.97304 7.37304 9.1 8.45 9.1C9.52695 9.1 10.4 9.97304 10.4 11.05C10.4 12.127 9.52695 13 8.45 13ZM17.5409 12.9818C16.469 12.9818 15.6 12.1128 15.6 11.0409C15.6 9.96897 16.469 9.1 17.5409 9.1C18.6128 9.1 19.4818 9.96897 19.4818 11.0409C19.4804 12.1122 18.6122 12.9804 17.5409 12.9818Z" fill="white"/>
</svg>
