<svg width="30" height="25" viewBox="0 0 30 25" fill="none" xmlns="http://www.w3.org/2000/svg">
<path d="M27 24.9986H3C1.39577 25.0486 0.0546246 23.7384 0 22.0677V2.93079C0.0546197 1.26037 1.39602 -0.0494526 3 0.00143386H27C28.604 -0.0494526 29.9454 1.26037 30 2.93079V22.0693C29.9446 23.7393 28.6037 25.0486 27 24.9986ZM3 3.12608V21.8568L27 21.874V3.14327L3 3.12608ZM17.145 18.7493H6C6.11029 17.4558 6.69801 16.2573 7.6395 15.4059C8.68774 14.3228 10.0962 13.7018 11.5725 13.6718C13.0488 13.7018 14.4573 14.3228 15.5055 15.4059C16.4467 16.2575 17.0344 17.4559 17.145 18.7493ZM24 17.187H19.5V14.0623H24V17.187ZM11.5725 12.5C10.7686 12.5291 9.98921 12.2093 9.42043 11.6169C8.85166 11.0244 8.54457 10.2127 8.5725 9.37538C8.54502 8.53822 8.85225 7.72671 9.42093 7.13441C9.9896 6.5421 10.7687 6.2221 11.5725 6.25073C12.3763 6.2221 13.1554 6.5421 13.7241 7.13441C14.2927 7.72671 14.6 8.53822 14.5725 9.37538C14.6004 10.2127 14.2933 11.0244 13.7246 11.6169C13.1558 12.2093 12.3764 12.5291 11.5725 12.5ZM24 10.9377H18V7.81305H24V10.9377Z" fill="#DA1025"/>
</svg>
