<svg width="30" height="30" viewBox="0 0 30 30" fill="none" xmlns="http://www.w3.org/2000/svg">
<path d="M15 30C6.71573 30 0 23.2843 0 15C0 6.71573 6.71573 0 15 0C23.2843 0 30 6.71573 30 15C29.9909 23.2805 23.2805 29.9909 15 30ZM3 15.258C3.07097 21.8599 8.46166 27.1643 15.0638 27.129C21.666 27.0933 26.9993 21.7312 26.9993 15.129C26.9993 8.52676 21.666 3.16466 15.0638 3.129C8.46166 3.09369 3.07097 8.39814 3 15V15.258ZM18 22.5H13.5V16.5H12V13.5H16.5V19.5H18V22.5ZM16.5 10.5H13.5V7.5H16.5V10.5Z" fill="#DA1025"/>
</svg>
