<svg width="26" height="26" viewBox="0 0 26 26" fill="none" xmlns="http://www.w3.org/2000/svg">
<path d="M13.0195 26C11.5822 25.993 10.4168 24.8351 10.4026 23.4H15.6104C15.6135 23.7475 15.5476 24.0921 15.4164 24.414C15.0747 25.1965 14.3771 25.7672 13.5416 25.948H13.5351H13.5182H13.5052H13.4908H13.4817C13.3296 25.9795 13.1749 25.9969 13.0195 26ZM23.4352 22.1H2.60391V19.5L5.20781 18.2V11.05C5.13922 9.21585 5.55405 7.39586 6.41082 5.772C7.26364 4.26597 8.72139 3.19654 10.4156 2.834V0H15.6234V2.834C18.9812 3.6322 20.8312 6.5494 20.8312 11.05V18.2L23.4352 19.5V22.1ZM26 10.4H23.3961C23.2748 7.03806 21.6562 3.90586 18.9825 1.859L20.8312 0C22.3885 1.20962 23.6468 2.76004 24.5093 4.5318C25.4011 6.36614 25.9084 8.363 26 10.4ZM2.60391 10.4H0C0.0916016 8.36299 0.598879 6.36612 1.49074 4.5318C2.35323 2.76004 3.61155 1.20962 5.16875 0L7.01753 1.859C4.34346 3.90562 2.7248 7.03797 2.60391 10.4Z" fill="white"/>
</svg>
