<svg width="40" height="40" viewBox="0 0 40 40" fill="none" xmlns="http://www.w3.org/2000/svg">
<path d="M20.0001 36.6669C13.256 36.6708 7.17421 32.61 4.59283 26.3795C2.01145 20.149 3.43929 12.9769 8.21005 8.21013C12.4222 3.99797 18.5616 2.35293 24.3155 3.89469C30.0694 5.43645 34.5637 9.93077 36.1055 15.6847C37.6473 21.4386 36.0022 27.578 31.7901 31.7901C28.6691 34.9251 24.4237 36.6812 20.0001 36.6669ZM6.66672 20.2868C6.74558 27.6222 12.7352 33.516 20.071 33.4768C27.4067 33.4372 33.3326 27.4793 33.3326 20.1435C33.3326 12.8076 27.4067 6.84975 20.071 6.81013C12.7352 6.77089 6.74558 12.6647 6.66672 20.0001V20.2868ZM15.6817 26.6668L13.3334 24.3168L17.6501 20.0001L13.3334 15.6835L15.6834 13.3335L20.0001 17.6501L24.3167 13.3335L26.6667 15.6835L22.3501 20.0001L26.6667 24.3168L24.3184 26.6668L20.0001 22.3501L15.6834 26.6668H15.6817Z" fill="#DC1D21"/>
</svg>
