<svg width="22" height="30" viewBox="0 0 22 30" fill="none" xmlns="http://www.w3.org/2000/svg">
<g opacity="0.15">
<path d="M18.7083 14.298L11.4429 24.3305C10.5528 25.5595 9.34563 26.25 8.08688 26.25C6.82814 26.25 5.62095 25.5595 4.73088 24.3305C3.84081 23.1014 3.34077 21.4345 3.34077 19.6963C3.34077 17.9582 3.84081 16.2912 4.73088 15.0622L11.9963 5.02969C12.5897 4.21032 13.3945 3.75 14.2336 3.75C15.0728 3.75 15.8776 4.21032 16.471 5.02969C17.0643 5.84906 17.3977 6.96036 17.3977 8.11912C17.3977 9.27788 17.0643 10.3892 16.471 11.2086L9.19765 21.241C8.90096 21.6507 8.49856 21.8809 8.07898 21.8809C7.6594 21.8809 7.257 21.6507 6.96031 21.241C6.66362 20.8314 6.49694 20.2757 6.49694 19.6963C6.49694 19.1169 6.66362 18.5613 6.96031 18.1516L13.6723 8.89421" stroke="black" stroke-width="2" stroke-linecap="round" stroke-linejoin="round"/>
</g>
</svg>
