<svg width="30" height="30" viewBox="0 0 30 30" fill="none" xmlns="http://www.w3.org/2000/svg">
<path d="M17.815 30H12.1872C11.4607 30 10.8321 29.5095 10.6766 28.821L10.0474 25.995C9.20793 25.6382 8.41196 25.1919 7.67412 24.6645L4.83395 25.542C4.1413 25.7563 3.38833 25.4735 3.02502 24.8625L0.204943 20.136C-0.154388 19.5248 -0.0305914 18.7537 0.503339 18.2775L2.70652 16.3275C2.60633 15.4442 2.60633 14.5528 2.70652 13.6695L0.503339 11.724C-0.0313779 11.2476 -0.155224 10.4756 0.204943 9.864L3.01883 5.1345C3.38215 4.52355 4.13511 4.2407 4.82776 4.455L7.66794 5.3325C8.04528 5.06123 8.4381 4.81084 8.84452 4.5825C9.23466 4.36904 9.63617 4.17577 10.0474 4.0035L10.6782 1.1805C10.8329 0.491953 11.4608 0.000741589 12.1872 0H17.815C18.5413 0.000741589 19.1692 0.491953 19.3239 1.1805L19.9609 4.005C20.3951 4.19027 20.8178 4.39962 21.2272 4.632C21.609 4.84622 21.978 5.08109 22.3326 5.3355L25.1744 4.458C25.8665 4.2445 26.6186 4.52724 26.9817 5.1375L29.7956 9.867C30.155 10.4782 30.0312 11.2493 29.4972 11.7255L27.2941 13.6755C27.3942 14.5588 27.3942 15.4502 27.2941 16.3335L29.4972 18.2835C30.0312 18.7597 30.155 19.5308 29.7956 20.142L26.9817 24.8715C26.6186 25.4818 25.8665 25.7645 25.1744 25.551L22.3326 24.6735C21.9731 24.9304 21.5994 25.1683 21.2133 25.386C20.8079 25.6139 20.3898 25.8197 19.9609 26.0025L19.3239 28.821C19.1686 29.509 18.5409 29.9994 17.815 30ZM8.22917 21.3435L9.49697 22.2435C9.78276 22.4477 10.0806 22.6356 10.3891 22.806C10.6793 22.9691 10.9781 23.1173 11.2843 23.25L12.7268 23.8635L13.4333 27H16.5719L17.2785 23.862L18.721 23.2485C19.3507 22.9791 19.9484 22.6441 20.5036 22.2495L21.773 21.3495L24.9285 22.3245L26.4978 19.6875L24.0504 17.523L24.2235 16.005C24.2996 15.341 24.2996 14.671 24.2235 14.007L24.0504 12.489L26.4994 10.32L24.9285 7.6815L21.773 8.6565L20.5036 7.7565C19.9482 7.36007 19.3506 7.02263 18.721 6.75L17.2785 6.1365L16.5719 3H13.4333L12.7237 6.138L11.2843 6.75C10.9778 6.88057 10.679 7.02728 10.3891 7.1895C10.0825 7.35949 9.78623 7.5463 9.50161 7.749L8.23226 8.649L5.07823 7.674L3.50585 10.32L5.95332 12.4815L5.78016 14.001C5.70409 14.665 5.70409 15.335 5.78016 15.999L5.95332 17.517L3.50585 19.6815L5.07514 22.3185L8.22917 21.3435ZM14.9949 21C11.5793 21 8.8105 18.3137 8.8105 15C8.8105 11.6863 11.5793 9 14.9949 9C18.4104 9 21.1793 11.6863 21.1793 15C21.175 18.312 18.4086 20.9959 14.9949 21ZM14.9949 12C13.3056 12.0017 11.9303 13.3183 11.9061 14.957C11.8819 16.5957 13.2177 17.9501 14.9063 17.9987C16.5948 18.0473 18.011 16.7722 18.0871 15.135V15.735V15C18.0871 13.3431 16.7026 12 14.9949 12Z" fill="#DA1025"/>
</svg>
