<svg width="27" height="27" viewBox="0 0 27 27" fill="none" xmlns="http://www.w3.org/2000/svg">
<path d="M22.9688 26.25H3.28125C1.47006 26.2476 0.0024101 24.7799 0 22.9688V3.28125C0.0024101 1.47006 1.47006 0.0024101 3.28125 0H22.9688C24.7799 0.0024101 26.2476 1.47006 26.25 3.28125V22.9688C26.2476 24.7799 24.7799 26.2476 22.9688 26.25ZM4.9875 3.4125C4.11798 3.4133 3.4133 4.11798 3.4125 4.9875V19.8844C3.4133 20.7539 4.11798 21.4586 4.9875 21.4594H9.84375C10.7133 21.4586 11.4179 20.7539 11.4187 19.8844V4.9875C11.4179 4.11798 10.7133 3.4133 9.84375 3.4125H4.9875ZM16.4062 3.4125C15.5367 3.4133 14.8321 4.11798 14.8313 4.9875V13.3219C14.8321 14.1914 15.5367 14.8961 16.4062 14.8969H21.2625C22.132 14.8961 22.8367 14.1914 22.8375 13.3219V4.9875C22.8367 4.11798 22.132 3.4133 21.2625 3.4125H16.4062Z" fill="white"/>
</svg>
