<svg width="27" height="29" viewBox="0 0 27 29" fill="none" xmlns="http://www.w3.org/2000/svg">
<path d="M3.26389 27.4721C3.26389 28.2698 2.61719 28.9165 1.81944 28.9165C1.0217 28.9165 0.375 28.2698 0.375 27.4721V27.4428C0.381368 21.7483 4.90454 17.1335 10.4861 17.127H16.2639C21.8455 17.1335 26.3686 21.7483 26.375 27.4428V27.4721C26.375 28.2698 25.7283 28.9165 24.9306 28.9165C24.1328 28.9165 23.4861 28.2698 23.4861 27.4721V27.4428C23.4813 23.3754 20.2506 20.0793 16.2639 20.0744H10.4861C6.49937 20.0793 3.26866 23.3754 3.26389 27.4428V27.4721ZM13.375 15.6533C9.38628 15.6533 6.15278 12.3544 6.15278 8.28492C6.15278 4.21546 9.38628 0.916504 13.375 0.916504C17.3637 0.916504 20.5972 4.21546 20.5972 8.28492C20.5924 12.3524 17.3617 15.6485 13.375 15.6533ZM13.375 3.86387C10.9818 3.86387 9.04167 5.84325 9.04167 8.28492C9.04167 10.7266 10.9818 12.706 13.375 12.706C15.7682 12.706 17.7083 10.7266 17.7083 8.28492C17.7083 5.84325 15.7682 3.86387 13.375 3.86387Z" fill="white"/>
</svg>
