<svg width="24" height="30" viewBox="0 0 24 30" fill="none" xmlns="http://www.w3.org/2000/svg">
<path d="M12.3334 29.9165C6.10037 29.9165 0.833374 26.9658 0.833374 23.4727V7.3603C0.833374 3.86725 6.10037 0.916504 12.3334 0.916504C18.5664 0.916504 23.8334 3.86725 23.8334 7.3603V23.4727C23.8334 26.9658 18.5678 29.9165 12.3334 29.9165ZM3.70837 19.6215V23.4771C3.809 24.2789 7.02756 26.699 12.3334 26.699C17.6392 26.699 20.8592 24.2717 20.9584 23.4684V19.6215C18.3413 21.1518 15.3578 21.9277 12.3334 21.8647C9.30897 21.9278 6.32546 21.1519 3.70837 19.6215ZM3.70837 11.561V15.4165C3.809 16.2184 7.02756 18.6384 12.3334 18.6384C17.6392 18.6384 20.8592 16.2111 20.9584 15.4078V11.561C18.3414 13.0918 15.3579 13.8683 12.3334 13.8056C9.30882 13.8684 6.32528 13.0919 3.70837 11.561ZM12.3334 4.1384C7.02612 4.1384 3.80756 6.5657 3.70837 7.37045C3.809 8.1665 7.03044 10.5822 12.3334 10.5822C17.6363 10.5822 20.8592 8.1549 20.9584 7.3516C20.8577 6.55265 17.6363 4.1384 12.3334 4.1384Z" fill="white"/>
</svg>
