<svg width="22" height="30" viewBox="0 0 22 30" fill="none" xmlns="http://www.w3.org/2000/svg">
    <rect x="0.640856" y="4.82728" width="12.2402" height="25.4805" rx="4.5" transform="rotate(-20 0.640856 4.82728)" fill="white" stroke="#DC1D21"/>
    <rect x="12.9021" y="12.2573" width="0.5" height="4.54039" transform="rotate(-65 12.9021 12.2573)" fill="#DC1D21"/>
    <rect x="12.9734" y="12.0229" width="0.5" height="6.58241" transform="rotate(25 12.9734 12.0229)" fill="#DC1D21"/>
    <rect x="3.83374" y="15.0617" width="0.5" height="7.27579" transform="rotate(-65 3.83374 15.0617)" fill="#DC1D21"/>
    <rect x="13.0833" y="11.7872" width="0.5" height="6.87735" transform="rotate(25 13.0833 11.7872)" fill="#DC1D21"/>
    <rect x="3.83374" y="15.0617" width="0.5" height="7.31125" transform="rotate(-65 3.83374 15.0617)" fill="#DC1D21"/>
    <rect x="12.4492" y="11.0131" width="0.5" height="4.30391" transform="rotate(-65 12.4492 11.0131)" fill="#DC1D21"/>
    <rect x="12.5208" y="10.7788" width="0.5" height="6.58241" transform="rotate(25 12.5208 10.7788)" fill="#DC1D21"/>
    <rect x="3.38086" y="13.8175" width="0.5" height="7.27579" transform="rotate(-65 3.38086 13.8175)" fill="#DC1D21"/>
    <rect x="12.6221" y="10.5613" width="0.5" height="6.85719" transform="rotate(25 12.6221 10.5613)" fill="#DC1D21"/>
    <rect x="3.38086" y="13.8175" width="0.5" height="7.31125" transform="rotate(-65 3.38086 13.8175)" fill="#DC1D21"/>
    <rect x="9.74707" y="3.65826" width="0.5" height="4.5557" transform="rotate(-65 9.74707 3.65826)" fill="#DC1D21"/>
    <rect x="9.84888" y="3.43814" width="0.5" height="6.58241" transform="rotate(25 9.84888 3.43814)" fill="#DC1D21"/>
    <rect x="1.56592" y="6.87628" width="0.5" height="6.33054" transform="rotate(-65 1.56592 6.87628)" fill="#DC1D21"/>
    <rect x="9.95898" y="3.20227" width="0.5" height="6.87747" transform="rotate(25 9.95898 3.20227)" fill="#DC1D21"/>
    <rect x="10.1475" y="4.77478" width="0.5" height="4.49931" transform="rotate(-65 10.1475 4.77478)" fill="#DC1D21"/>
    <rect x="10.3628" y="4.32962" width="0.5" height="6.79837" transform="rotate(25 10.3628 4.32962)" fill="#DC1D21"/>
    <rect x="1.41943" y="7.65384" width="0.5" height="7.19375" transform="rotate(-65 1.41943 7.65384)" fill="#DC1D21"/>
    <rect x="10.5569" y="5.89532" width="0.5" height="4.80303" transform="rotate(-65 10.5569 5.89532)" fill="#DC1D21"/>
    <rect x="10.6641" y="5.67767" width="0.5" height="6.61669" transform="rotate(25 10.6641 5.67767)" fill="#DC1D21"/>
    <rect x="1.61328" y="8.75787" width="0.5" height="7.17761" transform="rotate(-65 1.61328 8.75787)" fill="#DC1D21"/>
    <rect x="12.0054" y="9.87656" width="0.5" height="4.58471" transform="rotate(-65 12.0054 9.87656)" fill="#DC1D21"/>
    <rect x="12.2112" y="9.44901" width="0.5" height="6.81409" transform="rotate(25 12.2112 9.44901)" fill="#DC1D21"/>
    <rect x="2.97339" y="12.6977" width="0.5" height="7.27579" transform="rotate(-65 2.97339 12.6977)" fill="#DC1D21"/>
    <rect x="2.97339" y="12.6977" width="0.5" height="7.31125" transform="rotate(-65 2.97339 12.6977)" fill="#DC1D21"/>
    <rect x="10.8039" y="21.1361" width="4.29609" height="4.29609" rx="1.5" transform="rotate(-20 10.8039 21.1361)" fill="white" stroke="#DC1D21"/>
    <path d="M13.252 23.608L12.5226 21.6038L13.2094 21.3538C13.4361 21.2713 13.6251 21.254 13.7766 21.3017C13.928 21.3495 14.0365 21.4633 14.102 21.6432C14.1354 21.7349 14.1406 21.8265 14.1178 21.918C14.095 22.0094 14.0432 22.0927 13.9624 22.1678C14.0814 22.1578 14.1851 22.1829 14.2736 22.2432C14.3626 22.3022 14.4279 22.3887 14.4693 22.5025C14.5378 22.6906 14.5298 22.8572 14.4454 23.0022C14.3619 23.1469 14.2078 23.2602 13.9829 23.342L13.252 23.608ZM13.2711 22.5769L13.4991 23.2032L13.8859 23.0624C13.9951 23.0227 14.0706 22.9645 14.1123 22.888C14.1541 22.8115 14.1575 22.7251 14.1224 22.6287C14.0466 22.4204 13.9014 22.3527 13.6868 22.4256L13.2711 22.5769ZM13.1779 22.3209L13.5193 22.1966C13.6276 22.1572 13.7032 22.1022 13.746 22.0315C13.7895 21.9595 13.7948 21.8786 13.7621 21.7887C13.726 21.6896 13.6715 21.6284 13.5986 21.605C13.5266 21.5813 13.4309 21.5912 13.3116 21.6346L12.973 21.7579L13.1779 22.3209Z" fill="#DC1D21"/>
</svg>