<svg width="26" height="28" viewBox="0 0 26 28" fill="none" xmlns="http://www.w3.org/2000/svg">
<path d="M12.4499 28C5.574 28 0 22.7217 0 16.2105C0 9.69938 5.574 4.42105 12.4499 4.42105C19.3257 4.42105 24.8997 9.69938 24.8997 16.2105C24.892 22.7186 19.3225 27.9927 12.4499 28ZM12.4499 7.36842C7.29297 7.36842 3.11247 11.3272 3.11247 16.2105C3.11247 21.0939 7.29297 25.0526 12.4499 25.0526C17.6068 25.0526 21.7873 21.0939 21.7873 16.2105C21.7813 11.3295 17.6043 7.37411 12.4499 7.36842ZM14.0061 17.6842H10.8936V10.3158H14.0061V17.6842ZM23.7995 8.41032L20.687 5.46295L22.8875 3.37916L26 6.32653L23.801 8.40884L23.7995 8.41032ZM17.1186 2.94737H7.78117V0H17.1186V2.94737Z" fill="white"/>
</svg>
